<?xml version="1.0" encoding="utf-8"?>
<!-- Generator: Adobe Illustrator 27.0.0, SVG Export Plug-In . SVG Version: 6.00 Build 0)  -->
<svg version="1.1" id="Layer_1" xmlns="http://www.w3.org/2000/svg" xmlns:xlink="http://www.w3.org/1999/xlink" x="0px" y="0px"
	 viewBox="0 0 1920 1080" style="enable-background:new 0 0 1920 1080;" xml:space="preserve">
<style type="text/css">
	.st0{fill:#FFFFFF;}
	.st1{fill:#221F1F;}
	.st2{clip-path:url(#SVGID_00000049182683898812060000000011256094261421374864_);}
	.st3{clip-path:url(#SVGID_00000124864573485278100780000008837585904064760983_);}
	.st4{clip-path:url(#SVGID_00000057136737411767470920000005209130723756234897_);}
</style>
<rect x="-192" y="-108" class="st0" width="2304" height="1296"/>
<rect x="-192" y="-106" class="st1" width="2304" height="1296"/>
<g>
	<defs>
		<rect id="SVGID_1_" x="553.1" y="639.3" width="37" height="37"/>
	</defs>
	<clipPath id="SVGID_00000035493261885736049250000006335017359847025328_">
		<use xlink:href="#SVGID_1_"  style="overflow:visible;"/>
	</clipPath>
	<g style="clip-path:url(#SVGID_00000035493261885736049250000006335017359847025328_);">
		<path class="st0" d="M590,657.7c0,1.2-0.1,2.4-0.4,3.6s-0.6,2.3-1,3.5s-1,2.2-1.7,3.2c-0.7,1-1.4,1.9-2.3,2.8
			c-0.9,0.9-1.8,1.6-2.8,2.3c-1,0.7-2.1,1.2-3.2,1.7c-1.1,0.5-2.3,0.8-3.5,1c-1.2,0.2-2.4,0.4-3.6,0.4c-1.2,0-2.4-0.1-3.6-0.4
			c-1.2-0.2-2.3-0.6-3.5-1c-1.1-0.5-2.2-1-3.2-1.7s-1.9-1.4-2.8-2.3c-0.9-0.9-1.6-1.8-2.3-2.8c-0.7-1-1.2-2.1-1.7-3.2
			c-0.5-1.1-0.8-2.3-1-3.5s-0.4-2.4-0.4-3.6c0-1.2,0.1-2.4,0.4-3.6c0.2-1.2,0.6-2.3,1-3.5c0.5-1.1,1-2.2,1.7-3.2
			c0.7-1,1.4-1.9,2.3-2.8c0.9-0.9,1.8-1.6,2.8-2.3s2.1-1.2,3.2-1.7c1.1-0.5,2.3-0.8,3.5-1.1c1.2-0.2,2.4-0.4,3.6-0.4
			c1.2,0,2.4,0.1,3.6,0.4c1.2,0.2,2.3,0.6,3.5,1.1c1.1,0.5,2.2,1,3.2,1.7c1,0.7,1.9,1.4,2.8,2.3c0.9,0.9,1.6,1.8,2.3,2.8
			c0.7,1,1.2,2.1,1.7,3.2c0.5,1.1,0.8,2.3,1,3.5C589.9,655.3,590,656.5,590,657.7z"/>
	</g>
</g>
<g>
	<g transform="translate(381.670914, 379.090492)">
		<g>
			<path class="st0" d="M173.2,120.7V-40.9c0-6,8-7.9,10.8-2.7l60,113.1c2.8,5.3,10.8,3.3,10.8-2.7V32.3c0-0.9-0.2-1.8-0.7-2.7
				L186.4-98.1c-1-1.9-2.9-3-5-3h-32.3c-3.2,0-5.7,2.6-5.7,5.7v216c0,3.2,2.6,5.7,5.7,5.7h18.3C170.6,126.4,173.2,123.8,173.2,120.7
				z M315.5,116.9V-91.6c0-5.2-4.3-9.5-9.5-9.5h-10.8c-5.2,0-9.5,4.3-9.5,9.5v208.5c0,5.2,4.3,9.5,9.5,9.5H306
				C311.3,126.4,315.5,122.1,315.5,116.9z"/>
		</g>
	</g>
</g>
<g>
	<g transform="translate(534.791581, 379.090492)">
		<g>
			<path class="st0" d="M194.5-88.5V56.8c0,6.9,5.6,12.6,12.6,12.6h5.6c6.9,0,12.6-5.6,12.6-12.6V30.6c0-7,5.7-12.6,12.6-12.6
				l87.7,0.3c7,0,12.6-5.6,12.6-12.6v-1c0-6.9-5.6-12.6-12.6-12.6h-87.8c-6.9,0-12.6-5.6-12.6-12.6v-42.1c0-6.9,5.6-12.6,12.6-12.6
				h87.8c6.9,0,12.6-5.6,12.6-12.6v-0.7c0-6.9-5.6-12.6-12.6-12.6H207C200.1-101.1,194.5-95.5,194.5-88.5z M194.5,113.1v0.7
				c0,6.9,5.6,12.6,12.6,12.6h118.5c6.9,0,12.6-5.6,12.6-12.6v-0.7c0-6.9-5.6-12.6-12.6-12.6H207
				C200.1,100.5,194.5,106.1,194.5,113.1z"/>
		</g>
	</g>
</g>
<g>
	<g transform="translate(666.800505, 379.090492)">
		<g>
			<path class="st0" d="M394-101.1c-2.6,0-5,1.3-6.5,3.5l-44.3,67.7C327.7-6.3,309,21.8,287,54.2L246.6,114c-3.5,5.1,0.2,12,6.4,12
				h14.7c2.6,0,5-1.3,6.4-3.4l55.7-83.3c3.1-4.6,9.8-4.6,12.9,0l55.1,83.3c1.4,2.2,3.8,3.5,6.4,3.5h14.6c6.1,0,9.8-6.8,6.5-11.9
				L355.8,8.3c-1.7-2.6-1.7-5.9,0-8.5l59.1-88.9c3.4-5.1-0.3-12-6.4-12H394z M256.9-89.1l38.1,56.9c3,4.5,9.7,4.6,12.8,0.1l7.4-10.6
				c1.8-2.6,1.8-6.1,0.1-8.7l-31-46.2c-1.4-2.1-3.8-3.4-6.4-3.4h-14.4C257.1-101.1,253.4-94.2,256.9-89.1z"/>
		</g>
	</g>
</g>
<g>
	<g transform="translate(836.907609, 379.090492)">
		<g>
			<path class="st0" d="M422-88.6v7.8c0,4.6,3.2,8.6,7.6,9.6c16.7,3.6,29.7,10.9,39,21.6c14.2,15.9,21,36.9,21,62.8
				c0,25.2-6.8,45.6-21,61.8c-9.3,10.7-22.3,17.8-39,21.5c-4.4,1-7.6,5-7.6,9.5v8.5c0,6.1,5.5,10.7,11.4,9.7
				c22.6-4,41.2-13.5,56.2-28.5c20.7-20.7,30.7-48.2,30.7-82.5c0-34.6-10-62.1-30.7-82.5c-15-15.3-33.6-24.9-56.2-28.9
				C427.4-99.3,422-94.7,422-88.6z M390.9-88c0-6.2-5.7-10.9-11.8-9.6c-21,4.3-38.7,13.7-53.2,28.2c-20.4,20.4-30.7,47.9-30.7,82.5
				c0,34.3,10.4,61.8,30.7,82.5c14.5,14.2,32.2,23.6,53.2,27.9c6.1,1.3,11.8-3.4,11.8-9.6v-8.6c0-4.4-3-8.3-7.2-9.5
				c-15.1-4-27.2-10.9-36.1-21c-13.9-16.2-21-36.6-21-61.8c0-25.9,7.1-46.9,21-62.8c8.9-10.1,21-17.2,36-21.1c4.3-1.1,7.3-5,7.3-9.5
				V-88z"/>
		</g>
	</g>
</g>
<g>
	<defs>
		<rect id="SVGID_00000057851038520682062740000013387015060697873849_" x="985.2" y="639.3" width="37" height="37"/>
	</defs>
	<clipPath id="SVGID_00000015316133528661084140000006603210216750558352_">
		<use xlink:href="#SVGID_00000057851038520682062740000013387015060697873849_"  style="overflow:visible;"/>
	</clipPath>
	<g style="clip-path:url(#SVGID_00000015316133528661084140000006603210216750558352_);">
		<path class="st0" d="M1022.1,657.7c0,1.2-0.1,2.4-0.4,3.6c-0.2,1.2-0.6,2.3-1,3.5c-0.5,1.1-1,2.2-1.7,3.2c-0.7,1-1.4,1.9-2.3,2.8
			c-0.9,0.9-1.8,1.6-2.8,2.3c-1,0.7-2.1,1.2-3.2,1.7c-1.1,0.5-2.3,0.8-3.5,1c-1.2,0.2-2.4,0.4-3.6,0.4c-1.2,0-2.4-0.1-3.6-0.4
			c-1.2-0.2-2.3-0.6-3.5-1c-1.1-0.5-2.2-1-3.2-1.7c-1-0.7-1.9-1.4-2.8-2.3c-0.9-0.9-1.6-1.8-2.3-2.8c-0.7-1-1.2-2.1-1.7-3.2
			s-0.8-2.3-1.1-3.5c-0.2-1.2-0.4-2.4-0.4-3.6c0-1.2,0.1-2.4,0.4-3.6c0.2-1.2,0.6-2.3,1.1-3.5c0.5-1.1,1-2.2,1.7-3.2
			c0.7-1,1.4-1.9,2.3-2.8c0.9-0.9,1.8-1.6,2.8-2.3c1-0.7,2.1-1.2,3.2-1.7c1.1-0.5,2.3-0.8,3.5-1.1c1.2-0.2,2.4-0.4,3.6-0.4
			c1.2,0,2.4,0.1,3.6,0.4c1.2,0.2,2.3,0.6,3.5,1.1s2.2,1,3.2,1.7c1,0.7,1.9,1.4,2.8,2.3c0.9,0.9,1.6,1.8,2.3,2.8
			c0.7,1,1.2,2.1,1.7,3.2c0.5,1.1,0.8,2.3,1,3.5C1022,655.3,1022.1,656.5,1022.1,657.7z"/>
	</g>
</g>
<g>
	<defs>
		<rect id="SVGID_00000157306990210257442460000015454904578270045097_" x="1275.5" y="639.3" width="37" height="37"/>
	</defs>
	<clipPath id="SVGID_00000156589197147287721410000005003514003136039608_">
		<use xlink:href="#SVGID_00000157306990210257442460000015454904578270045097_"  style="overflow:visible;"/>
	</clipPath>
	<g style="clip-path:url(#SVGID_00000156589197147287721410000005003514003136039608_);">
		<path class="st0" d="M1312.3,657.7c0,1.2-0.1,2.4-0.4,3.6c-0.2,1.2-0.6,2.3-1,3.5c-0.5,1.1-1,2.2-1.7,3.2c-0.7,1-1.4,1.9-2.3,2.8
			c-0.9,0.9-1.8,1.6-2.8,2.3c-1,0.7-2.1,1.2-3.2,1.7c-1.1,0.5-2.3,0.8-3.5,1c-1.2,0.2-2.4,0.4-3.6,0.4c-1.2,0-2.4-0.1-3.6-0.4
			c-1.2-0.2-2.3-0.6-3.5-1c-1.1-0.5-2.2-1-3.2-1.7c-1-0.7-1.9-1.4-2.8-2.3c-0.9-0.9-1.6-1.8-2.3-2.8c-0.7-1-1.2-2.1-1.7-3.2
			c-0.5-1.1-0.8-2.3-1.1-3.5c-0.2-1.2-0.4-2.4-0.4-3.6c0-1.2,0.1-2.4,0.4-3.6c0.2-1.2,0.6-2.3,1.1-3.5c0.5-1.1,1-2.2,1.7-3.2
			c0.7-1,1.4-1.9,2.3-2.8c0.9-0.9,1.8-1.6,2.8-2.3c1-0.7,2.1-1.2,3.2-1.7c1.1-0.5,2.3-0.8,3.5-1.1c1.2-0.2,2.4-0.4,3.6-0.4
			c1.2,0,2.4,0.1,3.6,0.4c1.2,0.2,2.3,0.6,3.5,1.1c1.1,0.5,2.2,1,3.2,1.7c1,0.7,1.9,1.4,2.8,2.3c0.9,0.9,1.6,1.8,2.3,2.8
			c0.7,1,1.2,2.1,1.7,3.2c0.5,1.1,0.8,2.3,1,3.5C1312.2,655.3,1312.3,656.5,1312.3,657.7z"/>
	</g>
</g>
<g>
	<g transform="translate(201.37939, 513.182514)">
		<g>
			<path class="st0" d="M117.4,171.1h-7.5l-28.6-43.8v43.8h-7.5v-56.9h7.5l28.7,44v-44h7.5V171.1z"/>
		</g>
	</g>
</g>
<g>
	<g transform="translate(244.144472, 513.182514)">
		<g>
			<path class="st0" d="M120.1,144.8H95.5v20.2h28.6v6.1H88v-56.9h35.8v6.2H95.5v18.3h24.6V144.8z"/>
		</g>
	</g>
</g>
<g>
	<g transform="translate(278.239372, 513.182514)">
		<g>
			<path class="st0" d="M117.9,136l13.6-21.8h8.8l-18,28.2l18.4,28.7h-8.9l-14-22.2l-14.1,22.2H95l18.4-28.7l-18-28.2h8.8L117.9,136
				z"/>
		</g>
	</g>
</g>
<g>
	<g transform="translate(315.84921, 513.182514)">
		<g>
			<path class="st0" d="M155.6,144.5c0,5.6-0.9,10.4-2.8,14.6c-1.9,4.2-4.5,7.3-8,9.5c-3.4,2.2-7.4,3.3-12,3.3
				c-4.5,0-8.5-1.1-11.9-3.3c-3.5-2.2-6.1-5.3-8.1-9.4c-1.9-4.1-2.9-8.8-3-14.2v-4.1c0-5.5,0.9-10.3,2.9-14.5
				c1.9-4.2,4.6-7.4,8.1-9.6c3.5-2.2,7.5-3.4,11.9-3.4c4.6,0,8.6,1.1,12,3.3c3.5,2.2,6.2,5.4,8,9.6c1.9,4.2,2.8,9.1,2.8,14.6V144.5z
				 M148.2,140.8c0-6.8-1.4-11.9-4.1-15.5c-2.7-3.6-6.5-5.4-11.4-5.4c-4.7,0-8.5,1.8-11.2,5.4c-2.7,3.6-4.1,8.6-4.2,15v4.2
				c0,6.5,1.4,11.7,4.1,15.4c2.8,3.7,6.5,5.6,11.4,5.6c4.8,0,8.6-1.8,11.2-5.3c2.7-3.5,4-8.6,4.1-15.2V140.8z"/>
		</g>
	</g>
</g>
<g>
	<g transform="translate(500.250269, 513.182514)">
		<g>
			<path class="st0" d="M205.5,144.8h-24.6v20.2h28.6v6.1h-36.1v-56.9h35.8v6.2h-28.2v18.3h24.6V144.8z"/>
		</g>
	</g>
</g>
<g>
	<g transform="translate(534.345169, 513.182514)">
		<g>
			<path class="st0" d="M190.4,128.8l0.2,5.3c3.2-4.1,7.4-6.1,12.6-6.1c8.9,0,13.4,5,13.5,15.1v27.9h-7.2v-28c0-3-0.7-5.3-2.1-6.8
				c-1.4-1.5-3.5-2.2-6.4-2.2c-2.3,0-4.4,0.6-6.2,1.9c-1.8,1.2-3.1,2.9-4.1,4.9v30.1h-7.2v-42.3H190.4z"/>
		</g>
	</g>
</g>
<g>
	<g transform="translate(567.44417, 513.182514)">
		<g>
			<path class="st0" d="M192.9,149.6c0-6.6,1.5-11.8,4.6-15.7c3.1-3.9,7.1-5.8,12.1-5.8c5.2,0,9.2,1.8,12.1,5.5l0.4-4.7h6.6V170
				c0,5.5-1.6,9.8-4.9,12.9c-3.2,3.2-7.6,4.7-13.1,4.7c-3,0-6-0.7-8.9-2c-2.9-1.3-5.1-3.1-6.7-5.4l3.8-4.3c3.1,3.8,6.9,5.8,11.4,5.8
				c3.5,0,6.2-1,8.2-3c2-2,3-4.8,3-8.4v-3.6c-2.9,3.3-6.8,5-11.8,5c-4.9,0-9-2-12-6C194.4,161.9,192.9,156.5,192.9,149.6z
				 M200.2,150.4c0,4.8,1,8.5,2.9,11.2c2,2.7,4.7,4.1,8.2,4.1c4.6,0,7.9-2.1,10-6.2v-19.3c-2.2-4-5.5-6.1-10-6.1
				c-3.5,0-6.3,1.4-8.2,4.1C201.2,141,200.2,145,200.2,150.4z"/>
		</g>
	</g>
</g>
<g>
	<g transform="translate(601.099709, 513.182514)">
		<g>
			<path class="st0" d="M213.7,171.1h-7.2v-42.3h7.2V171.1z M205.9,117.6c0-1.2,0.4-2.2,1.1-3c0.7-0.8,1.8-1.2,3.2-1.2
				c1.4,0,2.5,0.4,3.2,1.2c0.7,0.8,1.1,1.8,1.1,3c0,1.2-0.4,2.1-1.1,2.9c-0.7,0.8-1.8,1.2-3.2,1.2c-1.4,0-2.5-0.4-3.2-1.2
				C206.2,119.7,205.9,118.7,205.9,117.6z"/>
		</g>
	</g>
</g>
<g>
	<g transform="translate(615.657417, 513.182514)">
		<g>
			<path class="st0" d="M217.5,128.8l0.2,5.3c3.2-4.1,7.4-6.1,12.6-6.1c8.9,0,13.4,5,13.5,15.1v27.9h-7.2v-28c0-3-0.7-5.3-2.1-6.8
				c-1.4-1.5-3.5-2.2-6.4-2.2c-2.3,0-4.4,0.6-6.2,1.9c-1.8,1.2-3.1,2.9-4.1,4.9v30.1h-7.2v-42.3H217.5z"/>
		</g>
	</g>
</g>
<g>
	<g transform="translate(648.756418, 513.182514)">
		<g>
			<path class="st0" d="M239.3,171.9c-5.7,0-10.4-1.9-14-5.6c-3.6-3.8-5.4-8.8-5.4-15.1v-1.3c0-4.2,0.8-7.9,2.4-11.2
				c1.6-3.3,3.9-5.9,6.7-7.7c2.9-1.9,6-2.8,9.4-2.8c5.5,0,9.8,1.8,12.8,5.4c3.1,3.6,4.6,8.8,4.6,15.5v3h-28.6
				c0.1,4.2,1.3,7.5,3.6,10.1c2.3,2.6,5.3,3.8,8.9,3.8c2.6,0,4.7-0.5,6.5-1.6c1.8-1,3.3-2.4,4.7-4.1l4.4,3.4
				C251.6,169.1,246.3,171.9,239.3,171.9z M238.4,134c-2.9,0-5.4,1.1-7.4,3.2c-2,2.1-3.2,5.1-3.6,8.9h21.2v-0.5
				c-0.2-3.7-1.2-6.5-3-8.5C243.8,135,241.4,134,238.4,134z"/>
		</g>
	</g>
</g>
<g>
	<g transform="translate(824.313301, 513.182514)">
		<g>
			<path class="st0" d="M299.9,136l13.6-21.8h8.8l-18,28.2l18.4,28.7h-8.9l-14-22.2l-14.1,22.2H277l18.4-28.7l-18-28.2h8.8
				L299.9,136z"/>
		</g>
	</g>
</g>
<g>
	<g transform="translate(861.923139, 513.182514)">
		<g>
			<path class="st0" d="M314.8,148.1h-13.4v23h-7.5v-56.9h18.8c6.4,0,11.3,1.5,14.8,4.4c3.5,2.9,5.2,7.2,5.2,12.7
				c0,3.5-1,6.6-2.9,9.3c-1.9,2.6-4.6,4.6-8,5.9l13.4,24.1v0.5h-8L314.8,148.1z M301.4,141.9h11.5c3.7,0,6.7-1,8.9-2.9
				c2.2-1.9,3.3-4.5,3.3-7.8c0-3.5-1.1-6.2-3.1-8.1c-2.1-1.9-5.1-2.8-9.1-2.9h-11.5V141.9z"/>
		</g>
	</g>
</g>
<g>
	<g transform="translate(1042.020194, 513.182514)">
		<g>
			<path class="st0" d="M397.7,144.5c0,5.6-0.9,10.4-2.8,14.6c-1.9,4.2-4.5,7.3-8,9.5c-3.4,2.2-7.4,3.3-12,3.3
				c-4.5,0-8.5-1.1-11.9-3.3c-3.5-2.2-6.1-5.3-8.1-9.4c-1.9-4.1-2.9-8.8-3-14.2v-4.1c0-5.5,0.9-10.3,2.9-14.5
				c1.9-4.2,4.6-7.4,8.1-9.6c3.5-2.2,7.5-3.4,11.9-3.4c4.6,0,8.6,1.1,12,3.3c3.5,2.2,6.2,5.4,8,9.6c1.9,4.2,2.8,9.1,2.8,14.6V144.5z
				 M390.2,140.8c0-6.8-1.4-11.9-4.1-15.5c-2.7-3.6-6.5-5.4-11.4-5.4c-4.7,0-8.5,1.8-11.2,5.4c-2.7,3.6-4.1,8.6-4.2,15v4.2
				c0,6.5,1.4,11.7,4.1,15.4c2.8,3.7,6.5,5.6,11.4,5.6c4.8,0,8.6-1.8,11.2-5.3c2.7-3.5,4-8.6,4.1-15.2V140.8z"/>
		</g>
	</g>
</g>
<g>
	<g transform="translate(1083.262135, 513.182514)">
		<g>
			<path class="st0" d="M373.4,128.8l0.2,5.3c3.2-4.1,7.4-6.1,12.6-6.1c8.9,0,13.4,5,13.5,15.1v27.9h-7.2v-28c0-3-0.7-5.3-2.1-6.8
				c-1.4-1.5-3.5-2.2-6.4-2.2c-2.3,0-4.4,0.6-6.2,1.9c-1.8,1.2-3.1,2.9-4.1,4.9v30.1h-7.2v-42.3H373.4z"/>
		</g>
	</g>
</g>
<g>
	<g transform="translate(1116.361137, 513.182514)">
		<g>
			<path class="st0" d="M385.4,171.1h-7.2v-60h7.2V171.1z"/>
		</g>
	</g>
</g>
<g>
	<g transform="translate(1130.918844, 513.182514)">
		<g>
			<path class="st0" d="M390.3,171.1h-7.2v-42.3h7.2V171.1z M382.5,117.6c0-1.2,0.4-2.2,1.1-3c0.7-0.8,1.8-1.2,3.2-1.2
				c1.4,0,2.5,0.4,3.2,1.2c0.7,0.8,1.1,1.8,1.1,3c0,1.2-0.4,2.1-1.1,2.9c-0.7,0.8-1.8,1.2-3.2,1.2c-1.4,0-2.5-0.4-3.2-1.2
				C382.8,119.7,382.5,118.7,382.5,117.6z"/>
		</g>
	</g>
</g>
<g>
	<g transform="translate(1145.476552, 513.182514)">
		<g>
			<path class="st0" d="M394.1,128.8l0.2,5.3c3.2-4.1,7.4-6.1,12.6-6.1c8.9,0,13.4,5,13.5,15.1v27.9h-7.2v-28c0-3-0.7-5.3-2.1-6.8
				c-1.4-1.5-3.5-2.2-6.4-2.2c-2.3,0-4.4,0.6-6.2,1.9c-1.8,1.2-3.1,2.9-4.1,4.9v30.1h-7.2v-42.3H394.1z"/>
		</g>
	</g>
</g>
<g>
	<g transform="translate(1178.575553, 513.182514)">
		<g>
			<path class="st0" d="M415.9,171.9c-5.7,0-10.4-1.9-14-5.6c-3.6-3.8-5.4-8.8-5.4-15.1v-1.3c0-4.2,0.8-7.9,2.4-11.2
				c1.6-3.3,3.9-5.9,6.7-7.7c2.9-1.9,6-2.8,9.4-2.8c5.5,0,9.8,1.8,12.8,5.4c3.1,3.6,4.6,8.8,4.6,15.5v3h-28.6
				c0.1,4.2,1.3,7.5,3.6,10.1c2.3,2.6,5.3,3.8,8.9,3.8c2.6,0,4.7-0.5,6.5-1.6c1.8-1,3.3-2.4,4.7-4.1l4.4,3.4
				C428.3,169.1,422.9,171.9,415.9,171.9z M415,134c-2.9,0-5.4,1.1-7.4,3.2c-2,2.1-3.2,5.1-3.6,8.9h21.2v-0.5
				c-0.2-3.7-1.2-6.5-3-8.5C420.4,135,418,134,415,134z"/>
		</g>
	</g>
</g>
</svg>
